HIERARCHY
ROOT Hips
{
 OFFSET 0.000000 0.000000 0.000000
 CHANNELS 6 Xposition Yposition Zposition Yrotation Xrotation Zrotation
 JOINT Chest
 {
  OFFSET 0.000000 9.585900 0.002600
  CHANNELS 3 Yrotation Xrotation Zrotation
  JOINT Chest2
  {
   OFFSET 0.000000 9.601200 -0.005300
   CHANNELS 3 Yrotation Xrotation Zrotation
   JOINT Chest3
   {
    OFFSET 0.000000 9.561800 0.000000
    CHANNELS 3 Yrotation Xrotation Zrotation
    JOINT Chest4
    {
     OFFSET 0.000000 9.552100 0.000000
     CHANNELS 3 Yrotation Xrotation Zrotation
     JOINT Neck
     {
      OFFSET 0.000000 14.453000 0.000000
      CHANNELS 3 Yrotation Xrotation Zrotation
      JOINT Head
      {
       OFFSET 0.000000 8.936500 -0.011300
       CHANNELS 3 Yrotation Xrotation Zrotation
       End Site
       {
        OFFSET 0.000000 17.073600 -0.006000
       }
      }
     }
     JOINT RightCollar
     {
      OFFSET -2.921100 9.558500 0.000000
      CHANNELS 3 Yrotation Xrotation Zrotation
      JOINT RightShoulder
      {
       OFFSET -13.519700 0.000000 0.000000
       CHANNELS 3 Yrotation Xrotation Zrotation
       JOINT RightElbow
       {
        OFFSET 0.000000 -29.696600 0.000000
        CHANNELS 3 Yrotation Xrotation Zrotation
        JOINT RightWrist
        {
         OFFSET 0.000000 -24.004700 0.000000
         CHANNELS 3 Yrotation Xrotation Zrotation
         End Site
         {
          OFFSET 0.000000 -17.728500 0.000000
         }
        }
       }
      }
     }
     JOINT LeftCollar
     {
      OFFSET 2.921100 9.558500 0.000000
      CHANNELS 3 Yrotation Xrotation Zrotation
      JOINT LeftShoulder
      {
       OFFSET 13.519700 0.000000 0.000000
       CHANNELS 3 Yrotation Xrotation Zrotation
       JOINT LeftElbow
       {
        OFFSET 0.000000 -29.696600 0.000000
        CHANNELS 3 Yrotation Xrotation Zrotation
        JOINT LeftWrist
        {
         OFFSET 0.000000 -24.004700 0.000000
         CHANNELS 3 Yrotation Xrotation Zrotation
         End Site
         {
          OFFSET 0.000000 -17.728500 0.000000
         }
        }
       }
      }
     }
    }
   }
  }
 }
 JOINT RightHip
 {
  OFFSET -7.771700 -0.012900 -0.001300
  CHANNELS 3 Yrotation Xrotation Zrotation
  JOINT RightKnee
  {
   OFFSET 0.000000 -40.869800 0.001200
   CHANNELS 3 Yrotation Xrotation Zrotation
   JOINT RightAnkle
   {
    OFFSET 0.000000 -39.717900 0.002100
    CHANNELS 3 Yrotation Xrotation Zrotation
    JOINT RightToe
    {
     OFFSET 0.000000 -4.965400 11.033500
     CHANNELS 3 Yrotation Xrotation Zrotation
     End Site
     {
      OFFSET 0.000000 -1.423100 5.872300
     }
    }
   }
  }
 }
 JOINT LeftHip
 {
  OFFSET 7.771700 -0.012900 -0.001300
  CHANNELS 3 Yrotation Xrotation Zrotation
  JOINT LeftKnee
  {
   OFFSET 0.000000 -40.869800 0.001200
   CHANNELS 3 Yrotation Xrotation Zrotation
   JOINT LeftAnkle
   {
    OFFSET 0.000000 -39.717900 0.002100
    CHANNELS 3 Yrotation Xrotation Zrotation
    JOINT LeftToe
    {
     OFFSET 0.000000 -4.965400 11.033500
     CHANNELS 3 Yrotation Xrotation Zrotation
     End Site
     {
      OFFSET 0.000000 -1.423100 5.872300
     }
    }
   }
  }
 }
}
MOTION
Frames: 7
Frame Time: 0.008333
-186.876836 58.115570 29.310859 170.320043 -49.556143 -3.082650 5.279843 21.958012 3.613515 2.742370 12.581467 1.848617 3.508252 15.716316 2.426200 2.742055 12.583027 1.850327 2.309449 15.383710 5.221372 2.415772 -7.222972 8.865332 1.446676 4.495866 0.729546 2.679909 -13.051900 -9.911805 -69.454688 -68.885604 109.138782 -0.619016 14.038843 -34.867661 -9.611137 1.751828 -1.467014 1.537832 -10.861966 14.493851 54.551759 -54.047436 -103.362108 8.416825 -1.187627 11.487283 3.455542 -23.101545 0.880351 -36.588284 73.065192 -37.441565 6.858746 -12.069088 8.934816 0.047168 -0.145320 0.021430 0.476991 -21.830382 13.416674 50.601763 79.915111 50.668573 3.651553 -16.240777 -15.394020 0.045305 0.123299 0.026262
-186.877265 58.115639 29.311274 170.321227 -49.557980 -3.086154 5.285950 21.954635 3.615361 2.739353 12.584868 1.851686 3.511102 15.715403 2.426300 2.744039 12.582182 1.852160 2.308289 15.382022 5.203289 2.411072 -7.222918 8.863028 1.444352 4.485021 0.721257 2.662640 -13.043143 -9.891969 -69.421629 -68.881502 109.101526 -0.631772 14.119283 -34.764408 -9.616826 1.744742 -1.461771 1.576658 -10.847378 14.485699 54.541327 -54.051373 -103.371818 8.405980 -1.181066 11.463792 3.451563 -23.099414 0.880826 -36.567239 73.068253 -37.420752 6.868412 -12.072867 8.933512 0.042807 -0.145931 0.018542 0.475217 -21.827698 13.418480 50.596214 79.912444 50.662577 3.653045 -16.240690 -15.393588 0.044211 0.125640 0.024753
-186.877578 58.116467 29.310976 170.324949 -49.564925 -3.092037 5.292926 21.954563 3.623160 2.736197 12.586580 1.852522 3.511834 15.715787 2.427356 2.740751 12.585522 1.852599 2.308292 15.379986 5.169550 2.409893 -7.223688 8.849158 1.445029 4.473740 0.712094 2.653474 -13.032609 -9.878888 -69.336642 -68.848559 108.984705 -0.593309 14.147584 -34.675984 -9.621737 1.737182 -1.454268 1.612756 -10.833915 14.473406 54.519773 -54.039181 -103.373136 8.388813 -1.176319 11.444415 3.446944 -23.092272 0.882478 -36.582951 73.067876 -37.434141 6.884936 -12.078041 8.927589 0.031988 -0.148484 0.019741 0.471516 -21.819837 13.420360 50.603360 79.910854 50.672979 3.650225 -16.241203 -15.397889 0.047169 0.124962 0.025746
-186.878701 58.116751 29.310867 170.329894 -49.567299 -3.094430 5.290914 21.956319 3.622252 2.738400 12.586561 1.853730 3.511014 15.716660 2.427869 2.739155 12.585684 1.852901 2.304625 15.380468 5.152294 2.415329 -7.225433 8.820602 1.443155 4.463749 0.701359 2.629750 -13.029970 -9.860535 -69.282040 -68.838250 108.938114 -0.596770 14.259967 -34.554172 -9.618842 1.720391 -1.435131 1.631639 -10.812925 14.451308 54.492368 -53.993855 -103.344083 8.361833 -1.150308 11.398558 3.443466 -23.089083 0.879844 -36.584791 73.069252 -37.433431 6.877052 -12.084575 8.929023 0.038942 -0.144115 0.017127 0.469618 -21.816557 13.419066 50.592577 79.911189 50.663793 3.643658 -16.243021 -15.398164 0.050088 0.125932 0.025876
-186.879311 58.117297 29.310621 170.332853 -49.571049 -3.098006 5.290772 21.959119 3.623596 2.738674 12.586289 1.853344 3.510316 15.717227 2.428267 2.738533 12.586358 1.853304 2.302044 15.381448 5.139407 2.422800 -7.222292 8.748189 1.446707 4.451725 0.691607 2.594974 -13.021050 -9.846056 -69.198736 -68.816467 108.859924 -0.571792 14.358027 -34.434583 -9.615478 1.712434 -1.424899 1.637147 -10.803206 14.440475 54.471001 -53.964587 -103.313785 8.351267 -1.140536 11.374462 3.435169 -23.084721 0.882112 -36.570097 73.072010 -37.421531 6.872647 -12.086382 8.927868 0.043165 -0.144410 0.016231 0.466847 -21.810299 13.419482 50.579375 79.909634 50.650994 3.642448 -16.245624 -15.395908 0.050678 0.129102 0.023015
-186.879922 58.117639 29.310496 170.333267 -49.573323 -3.099275 5.290084 21.960665 3.620622 2.737528 12.586784 1.853314 3.507073 15.718858 2.429303 2.739125 12.585995 1.851699 2.306882 15.380945 5.135578 2.424464 -7.221936 8.740029 1.454642 4.437927 0.675990 2.513686 -13.012276 -9.829805 -69.111904 -68.794157 108.833661 -0.549912 14.416946 -34.368055 -9.608726 1.704842 -1.416352 1.661382 -10.790803 14.432008 54.446452 -53.952462 -103.303916 8.341444 -1.141462 11.359305 3.433546 -23.082699 0.883603 -36.557402 73.074293 -37.407783 6.865082 -12.085545 8.925556 0.041469 -0.147504 0.016951 0.463154 -21.807131 13.418531 50.601473 79.909433 50.666802 3.651749 -16.249229 -15.391208 0.040813 0.132346 0.019190
-186.880741 58.117455 29.310807 170.327985 -49.571412 -3.094735 5.288350 21.960165 3.619407 2.737413 12.587241 1.853026 3.508840 15.718564 2.427998 2.737374 12.587348 1.853006 2.305539 15.382222 5.116242 2.429125 -7.220048 8.704506 1.448036 4.414903 0.653373 2.498468 -12.993351 -9.811526 -69.041787 -68.783328 108.778206 -0.527098 14.452149 -34.351639 -9.606936 1.695018 -1.412645 1.699708 -10.770470 14.427279 54.431188 -53.950232 -103.318425 8.337658 -1.142716 11.346217 3.435676 -23.084052 0.884941 -36.550580 73.073752 -37.401197 6.851947 -12.087836 8.923826 0.038904 -0.148814 0.018637 0.461510 -21.810997 13.416748 50.628073 79.908407 50.689424 3.652617 -16.242820 -15.387051 0.037480 0.127448 0.015682
